<?xml version="1.0"?><svg width="640" height="480" xmlns="http://www.w3.org/2000/svg">
 <title>Wide Thought Bubble</title>

 <metadata id="metadata1906">image/svg+xml</metadata>
 <g>
  <title>Layer 1</title>
  <g id="layer1">
   <path fill="#ffffff" stroke="#000000" stroke-width="6" id="path2393" d="m38.098785,449.198608c-4.455719,-3.913818 -4.367897,-8.841949 0.221367,-12.399841c4.742958,-3.677887 10.712822,-3.604889 15.024151,0.182495c4.455795,3.915161 4.367859,8.84198 -0.221371,12.399902c-4.742958,3.677826 -10.71283,3.604828 -15.024147,-0.182556zm32.521652,-15.972107c-11.90144,-5.329712 -11.708363,-20.832458 0.323349,-25.966614c9.069084,-3.870789 20.082214,-1.264618 24.509094,5.801666c8.426025,13.448059 -8.727249,27.377228 -24.832443,20.164948zm46.184052,-24.356506c-15.591034,-6.879822 -21.805115,-22.556 -13.824699,-34.877686c8.334244,-12.867889 27.329048,-17.996796 42.257896,-11.410309c15.591019,6.87854 21.805252,22.55603 13.82486,34.877655c-8.334412,12.86792 -27.329208,17.996887 -42.258057,11.410339zm235.542862,-23.854523c-20.348724,-3.643982 -33.342712,-8.093628 -48.901978,-16.747833l-8.443085,-4.696106l-14.461456,5.890289c-7.954956,3.239807 -19.437225,6.748199 -25.518768,7.795074c-56.903061,9.800232 -112.625336,-18.695618 -127.156433,-65.026672c-1.977692,-6.306183 -3.588898,-9.143127 -5.013245,-8.827637c-1.154388,0.254272 -7.785484,0.766602 -14.735825,1.138184c-23.015091,1.229431 -41.769318,-4.88382 -57.962456,-18.896423c-9.643555,-8.343933 -13.83226,-14.262909 -17.68502,-24.9888c-5.183685,-14.429825 -2.001381,-34.717316 7.449867,-47.492676c5.983299,-8.088394 19.426979,-18.429672 29.238754,-22.493423l9.091202,-3.763916l1.973579,-8.474319c7.467819,-32.065491 42.670174,-56.061234 82.24382,-56.061234l9.174911,0l1.003693,-7.925568c3.932785,-31.054718 32.35556,-59.457359 70.529984,-70.47971c8.722672,-2.518822 13.474182,-2.964703 31.592438,-2.964703c18.116699,0 22.868195,0.445881 31.592438,2.964703c28.840729,8.327518 51.798981,25.827236 63.387085,48.315067c2.483185,4.818634 5.310699,8.46167 6.452759,8.311867c1.118378,-0.14666 6.297943,-1.544273 11.510712,-3.105621c12.903931,-3.865211 35.802124,-4.778084 50.12616,-1.99839c27.674957,5.36998 52.321777,21.369354 63.954163,41.51593c3.642609,6.308792 4.928406,7.475647 7.550568,6.848557c7.051422,-1.688339 29.02243,-2.125092 37.910919,-0.753571c15.24176,2.350647 31.216431,9.386948 43.461731,19.145432c35.265076,28.098236 36.129089,71.954773 1.99353,101.136398c-18.085144,15.462372 -40.80011,22.789368 -66.991821,21.612122l-13.640015,-0.614075l-1.895508,9.701141c-10.561401,54.037445 -66.536896,93.180939 -132.737305,92.82373c-8.25354,-0.044342 -19.547791,-0.894348 -25.095398,-1.887817z"/>
  </g>
 </g>
</svg>