<?xml version="1.0" encoding="iso-8859-1"?>
<!-- Uploaded to: SVG Repo, www.svgrepo.com, Generator: SVG Repo Mixer Tools -->
<!DOCTYPE svg PUBLIC "-//W3C//DTD SVG 1.1//EN" "http://www.w3.org/Graphics/SVG/1.1/DTD/svg11.dtd">
<svg fill="#000000" version="1.1" id="Capa_1" xmlns="http://www.w3.org/2000/svg" xmlns:xlink="http://www.w3.org/1999/xlink" 
	 width="800px" height="800px" viewBox="0 0 934 934" xml:space="preserve">
<g>
	<path d="M461.37,934L461.37,934c26,0,47-21.1,47-47v-13h74.9c7.7,0,13.399-7.1,11.7-14.5L508.37,461V355.4l75.8,33.1
		c4.5,2,9.2,2.9,14,2.9c6.301,0,12.5-1.7,18-5l78.2-47l-27.6-65.1l-71.2,42.8c0,0-113.3-57.8-146.6-72.1c-4.2-1.8-8.9,1.3-8.9,5.9
		l0,0V305h-16.7h-34.8h-22.8v-54.1c0-4.8-5-7.9-9.3-5.7c-39.4,20-188,98.8-188,98.8c-9.1,4.8-15.7,13.4-17.9,23.4
		c-2.2,10.1,0.1,20.6,6.4,28.8l88.7,116c6.9,9,17.3,13.7,27.8,13.7c3.399,0,6.899-0.5,10.3-1.5l-72.8,335
		c-1.6,7.5,4.1,14.5,11.7,14.5h74.9v13c0,26,21.1,47,47,47l0,0c26,0,47-21.101,47-47v-13h22.7v13C414.271,913,435.37,934,461.37,934
		z M297.57,461l-59.8-74.3l59.8-31.3V461z"/>
	<path d="M757.771,198.1c1.5,0,3-0.3,4.5-0.9l14.899-6.3c5.9-2.5,8.601-9.3,6.2-15.1l-33.3-78.9c-1.9-4.4-6.1-7.1-10.7-7.1
		c-1.5,0-3,0.3-4.5,0.9L719.971,97c-5.9,2.5-8.601,9.3-6.2,15.1L599.17,160.5c-1.899-4.4-6.1-7.1-10.699-7.1c-1.5,0-3,0.3-4.5,0.9
		l-14.9,6.3c-5.9,2.5-8.6,9.3-6.2,15.1l33.3,78.8c1.9,4.4,6.101,7.1,10.7,7.1c1.5,0,3-0.3,4.5-0.9l14.9-6.3
		c5.899-2.5,8.6-9.3,6.2-15.1l33.1-14l16.8,39.6l27.601,65.1l17.399,41c4.2,10,13.9,16,24.2,16c3.4,0,6.9-0.7,10.2-2.1l0,0
		c13.3-5.601,19.6-21,13.899-34.4L713.971,205l33.1-14C748.971,195.4,753.271,198.1,757.771,198.1z"/>
	<path d="M520.07,176.3c3.3-3.1,5.3-7.5,5.3-12.3c0-7.3-4.6-13.5-11.1-15.9c3.7-3.1,6.1-7.8,6.1-13.1c0-7.6-5-14-11.8-16.2
		c3.6-3.1,5.8-7.7,5.8-12.8c0-7.6-5-14-11.899-16.2c2.399-2.9,3.899-6.7,3.899-10.8c0-8.8-6.7-16-15.2-16.9c1.5-2.5,2.4-5.5,2.4-8.7
		c0-9.4-7.6-17-17-17c-0.1,0-0.1,0-0.2,0l-0.1-0.1c0.1-0.6,0.1-1.3,0.1-1.9c0-9.4-7.6-17-17-17c-1,0-2,0.1-2.899,0.3
		c-0.7-0.4-1.301-0.8-2-1.2c-8.2-12.1-38.4-16.5-51.5-16.5l0,0l0,0c-13.101,0-43.301,4.4-51.5,16.5c-0.7,0.4-1.301,0.8-2,1.2
		c-0.9-0.2-1.9-0.3-2.9-0.3c-9.4,0-17,7.6-17,17c0,0.6,0,1.3,0.1,1.9l-0.1,0.1c-0.1,0-0.1,0-0.2,0c-9.399,0-17,7.6-17,17
		c0,3.2,0.9,6.1,2.4,8.7c-8.601,0.9-15.2,8.1-15.2,16.9c0,4.1,1.5,7.9,3.9,10.8c-6.9,2.2-11.9,8.6-11.9,16.2c0,5.1,2.3,9.7,5.8,12.8
		c-6.899,2.2-11.8,8.6-11.8,16.2c0,5.3,2.4,9.9,6.1,13.1c-6.5,2.4-11.1,8.6-11.1,15.9c0,4.8,2,9.2,5.3,12.3
		c-6.6,2.3-11.399,8.6-11.399,16c0,11.4,6.899,22.2,16.399,28.3c11.101,7.2,25.5,6.5,38,4.1c11.8-2.3,23.5-6.3,34.3-11.6
		c0.101-0.1,0.2-0.1,0.4-0.2c-12.5-7.3-18.9-21.8-22-36.4c13.1,21.7,35.8,36,61.5,36s48.4-14.3,61.5-36c-3.1,14.7-9.5,29.1-22,36.4
		c0.1,0.1,0.2,0.1,0.4,0.2c10.8,5.3,22.5,9.3,34.3,11.6c12.5,2.4,26.899,3.1,38-4.1c9.399-6.1,16.399-16.9,16.399-28.3
		C531.471,184.9,526.67,178.6,520.07,176.3z"/>
</g>
</svg>